# xmcd CD database file
#
# Track frame offsets:
#	150
#	14365
#	27504
#	50141
#	71313
#	84920
#	100654
#	112702
#	130889
#	146218
#
# Disc length: 2108 seconds
#
# Revision: 6
# Processed by: cddbd v1.5.1PL0 Copyright (c) Steve Scherf et al.
# Submitted via: CDex 1.51
#
DISCID=7f083a0a
DTITLE=PUFFY - THE HIT PARADE
DYEAR=1900
DGENRE=JPop
TTITLE0=IMAGE DOWN
TTITLE1=ハリケーン
TTITLE2=愛が止まらない-Turn It Into Love-
TTITLE3=チェリー
TTITLE4=ハイティーン・ブギ
TTITLE5=哀愁でいと(NEW YORK CITY NIGHTS)
TTITLE6=青い涙
TTITLE7=人にやさしく
TTITLE8=嘲笑
TTITLE9=カッコマン・ブギ
EXTD=
EXTT0=
EXTT1=
EXTT2=
EXTT3=
EXTT4=
EXTT5=
EXTT6=
EXTT7=
EXTT8=
EXTT9=
PLAYORDER=
